<?xml version="1.0" encoding="utf-8" ?>
<svg baseProfile="full" height="200mm" version="1.1" viewBox="0,0,200,200" width="200mm" xmlns="http://www.w3.org/2000/svg" xmlns:ev="http://www.w3.org/2001/xml-events" xmlns:xlink="http://www.w3.org/1999/xlink"><defs /><rect fill="#1a1a1a" height="200" width="200" x="0" y="0" /><text alignment-baseline="middle" fill="#e1ed5e" style="dominant-baseline: central; font-size:9.0px; font-family:Arial;" text-anchor="middle" x="100.0" y="100.0">2025</text><line stroke="#e1ed5e" stroke-width="0.3" x1="100.0" x2="100.0" y1="15.0" y2="10.0" /><path d="M 100.0 14.0 a86.0,86.0 0 0,1 42.46469731375804,11.215312516191453" fill="none" id="id13" stroke="none" /><text fill="#e1ed5e" style="font-size:6.75px; font-family:Arial;" text-anchor="middle"><textPath startOffset="22.20632615414155" xlink:href="#id13">January</textPath></text><path d="M 100.0 79.0 l 0.0 -8.992372195207409 a29.99237219520741,29.99237219520741 0 0,0 0.5162693845544585,0.0044436935849218925 l -0.1547889052819301 8.991039878231046" fill="#ff0000" stroke="none" /><path d="M 105.01212808612495 79.60689891045804 l 2.147373459411188 -8.737127879073933 a29.9971448998821,29.9971448998821 0 0,0 0.5003682487264778,0.12755500776418086 l -2.297450596822691 8.698869875140883" fill="#ff0000" stroke="none" /><line stroke="#e1ed5e" stroke-width="0.3" x1="143.23703022742887" x2="145.7803849466894" y1="26.81831364943548" y2="22.513508569990506" /><path d="M 143.74570117128098 25.957352633546492 a86.0,86.0 0 0,1 28.547481713284135,27.462654790039103" fill="none" id="id14" stroke="none" /><text fill="#e1ed5e" style="font-size:6.75px; font-family:Arial;" text-anchor="middle"><textPath startOffset="19.985693538727396" xlink:href="#id14">February</textPath></text><line stroke="#e1ed5e" stroke-width="0.3" x1="172.23445277983987" x2="176.4835382374775" y1="55.19839476539836" y2="52.563006222186495" /><path d="M 173.08426987136738 54.67131705675599 a86.0,86.0 0 0,1 12.851231095245387,41.99856678651699" fill="none" id="id15" stroke="none" /><text fill="#e1ed5e" style="font-size:6.75px; font-family:Arial;" text-anchor="middle"><textPath startOffset="22.20632615414155" xlink:href="#id15">March</textPath></text><path d="M 118.21658344932153 89.55222093294921 l 12.014866681062307 -6.8909009723491295 a34.850687260003504,34.850687260003504 0 0,0 0.2939777592293703,0.5229536307491666 l -12.13170208158411 6.683063831665169" fill="#ff5007" stroke="none" /><path d="M 118.56541770881063 90.18545643968196 l 13.212765897858525 -6.984882779948227 a35.94542639476139,35.94542639476139 0 0,0 0.2844662279927005,0.5494982087000665 l -13.331041559011341 6.756411848987816" fill="#ff6108" stroke="none" /><path d="M 119.04729006885535 91.15688171328212 l 27.137119254117085 -12.598997267192251 a50.91919072352877,50.91919072352877 0 0,0 0.3622480531522207,0.7981655673218606 l -27.349969624232653 12.130009691028329" fill="#c4ff1e" stroke="none" /><path d="M 119.34039704204932 91.81776055985345 l 15.54284747867706 -6.575630240460573 a37.876582023759354,37.876582023759354 0 0,0 0.24886413781689976,0.6026442494499663 l -15.653733303380157 6.307111420557303" fill="#ff7f0b" stroke="none" /><path d="M 119.47837535516314 92.15188598940014 l 17.04405109770445 -6.867290201480656 a39.37550958565537,39.37550958565537 0 0,0 0.24789030209136065,0.63085378013473 l -17.15973494967751 6.572887416450142" fill="#ff960d" stroke="none" /><path d="M 119.7369772167798 92.82701384747503 l 15.897723449056336 -5.777690722559281 a37.91506195519908,37.91506195519908 0 0,0 0.21764494807640228,0.6153115765958957 l -15.994821477942548 5.503181519536771" fill="#ff800b" stroke="none" /><path d="M 119.97218684219823 93.5106431181261 l 59.91656052659467 -19.46807064562169 a84.0,84.0 0 0,0 0.4349780649271753,1.3789993342943234 l -60.24279407529006 18.433821144900946" fill="#4dd2ff" stroke="none" /><path d="M 120.18372546131832 94.20196356495316 l 23.104235544593905 -6.636990765069108 a45.038621976221705,45.038621976221705 0 0,0 0.20763497346470444,0.7469734735192766 l -23.215057288624973 6.238305988130879" fill="#ffe915" stroke="none" /><path d="M 120.37134235888165 94.90015583598534 l 23.348225703288946 -5.845089169644282 a45.06874967448071,45.06874967448071 0 0,0 0.18192150979294455,0.7541821060122789 l -23.44538001334271 5.442321831972597" fill="#ffea15" stroke="none" /><path d="M 120.6074358757038 95.95851677861258 l 44.90643442829538 -8.806947277136306 a66.76188559713259,66.76188559713259 0 0,0 0.21145802337647931,1.1296172163141711 l -45.05137817558172 8.032651983359573" fill="#34ff60" stroke="none" /><path d="M 120.73433829027371 96.67025291283417 l 24.391006101021894 -3.9169748453472115 a45.703519396214986,45.703519396214986 0 0,0 0.11805459887272905,0.7778323047149013 l -24.454816593333923 3.496543428240228" fill="#fff316" stroke="none" /><path d="M 120.94382443527127 98.46500227214037 l 47.90549909783519 -3.5110508347902076 a69.033991316329,69.033991316329 0 0,0 0.07665866086205257,1.1858755536095409 l -47.95883834970166 2.685916216927631" fill="#38ff7e" stroke="none" /><path d="M 120.96714384426684 98.82574320788733 l 19.54491903134946 -1.0946056408216895 a40.57554651729869,40.57554651729869 0 0,0 0.03305243785070948,0.6976847233380181 l -19.560865077433665 0.7580098108606717" fill="#ffa80f" stroke="none" /><path d="M 120.98425023603335 99.18683210126433 l 15.895792361363194 -0.6159833173849715 a36.90772297479652,36.90772297479652 0 0,0 0.019136312604571097,0.6350410524458191 l -15.904040368423411 0.34227211751415326" fill="#ff700a" stroke="none" /><line stroke="#e1ed5e" stroke-width="0.3" x1="184.98032266829074" x2="189.97916517819016" y1="98.17113171792111" y2="98.06355123074" /><path d="M 185.9800911702706 98.14961562048488 a86.0,86.0 0 0,1 -9.607161424134198,41.387399972396054" fill="none" id="id16" stroke="none" /><text fill="#e1ed5e" style="font-size:6.75px; font-family:Arial;" text-anchor="middle"><textPath startOffset="21.466115282336823" xlink:href="#id16">April</textPath></text><path d="M 120.99824983174949 100.27111621757518 l 26.64736871466281 0.34405409365723244 a47.64958972732137,47.64958972732137 0 0,0 -0.01764835818972468,0.8200498571846032 l -26.63749829378808 -0.8026937666319506" fill="#f0ff19" stroke="none" /><path d="M 120.95626037817324 101.35467743843564 l 48.06938533779091 3.107353631872117 a69.16971510551559,69.16971510551559 0 0,0 -0.08703342425214607,1.1875019255430241 l -48.00877535487443 -3.9343286939119118" fill="#38ff7f" stroke="none" /><path d="M 120.92983693683757 101.71520430193887 l 23.96900928535361 1.9642650806845268 a45.04936056173977,45.04936056173977 0 0,0 -0.0699882655136362,0.7723146779148733 l -23.9316464235629 -2.376561147147971" fill="#ffe915" stroke="none" /><path d="M 120.8583938346157 102.4346265915055 l 32.094516414329156 3.746125599285648 a53.31240382384553,53.31240382384553 0 0,0 -0.11423703383312436,0.9105815584701995 l -32.02527787124919 -4.2980249120432426" fill="#a5ff21" stroke="none" /><path d="M 120.76222939487914 103.15116336523771 l 28.302854524322665 4.2956330272843966 a49.62698093285543,49.62698093285543 0 0,0 -0.1354538801627173,0.8434714410740662 l -28.22471888979866 -4.782183698051667" fill="#d6ff1c" stroke="none" /><line stroke="#e1ed5e" stroke-width="0.3" x1="174.80103733775053" x2="179.2010983576182" y1="140.37084112569926" y2="142.7455964860345" /><path d="M 175.68104954172406 140.8457921977663 a86.0,86.0 0 0,1 -30.038265399797805,32.042727171017184" fill="none" id="id17" stroke="none" /><text fill="#e1ed5e" style="font-size:6.75px; font-family:Arial;" text-anchor="middle"><textPath startOffset="22.206326154141568" xlink:href="#id17">May</textPath></text><line stroke="#e1ed5e" stroke-width="0.3" x1="143.8653032363475" x2="146.44561519142675" y1="172.8068346515853" y2="177.08958963109032" /><path d="M 144.38136562736335 173.6633856474863 a86.0,86.0 0 0,1 -40.68145358897372,12.25698825130547" fill="none" id="id18" stroke="none" /><text fill="#e1ed5e" style="font-size:6.75px; font-family:Arial;" text-anchor="middle"><textPath startOffset="21.466115282336833" xlink:href="#id18">June</textPath></text><line stroke="#e1ed5e" stroke-width="0.3" x1="102.19456741930631" x2="102.32365962044197" y1="184.97166512339345" y2="189.96999836594603" /><path d="M 102.22038585953345 185.97133177190398 a86.0,86.0 0 0,1 -42.740103519485714,-10.115201625700543" fill="none" id="id19" stroke="none" /><text fill="#e1ed5e" style="font-size:6.75px; font-family:Arial;" text-anchor="middle"><textPath startOffset="22.20632615414155" xlink:href="#id19">July</textPath></text><line stroke="#e1ed5e" stroke-width="0.3" x1="58.666819895761336" x2="56.23545636021788" y1="174.27360380694188" y2="178.64263932499728" /><path d="M 58.180547188652646 175.14741091055294 a86.0,86.0 0 0,1 -31.652253787137756,-30.449443065178592" fill="none" id="id20" stroke="none" /><text fill="#e1ed5e" style="font-size:6.75px; font-family:Arial;" text-anchor="middle"><textPath startOffset="22.20632615414155" xlink:href="#id20">August</textPath></text><line stroke="#e1ed5e" stroke-width="0.3" x1="26.63291911575756" x2="22.317208475507996" y1="142.92168965132927" y2="145.44649492493687" /><path d="M 25.769776987707644 143.4266507060508 a86.0,86.0 0 0,1 -11.730757126820373,-40.83630448921669" fill="none" id="id21" stroke="none" /><text fill="#e1ed5e" style="font-size:6.75px; font-family:Arial;" text-anchor="middle"><textPath startOffset="21.46611528233685" xlink:href="#id21">September</textPath></text><line stroke="#e1ed5e" stroke-width="0.3" x1="15.007084014347285" x2="10.007500721073583" y1="101.09737516637583" y2="101.16192664675087" /><path d="M 14.007167355692545 101.11028546245083 a86.0,86.0 0 0,1 10.666146001902534,-42.60595125391555" fill="none" id="id22" stroke="none" /><text fill="#e1ed5e" style="font-size:6.75px; font-family:Arial;" text-anchor="middle"><textPath startOffset="22.20632615414155" xlink:href="#id22">October</textPath></text><line stroke="#e1ed5e" stroke-width="0.3" x1="26.266209847984243" x2="21.928928074336255" y1="57.711370442889674" y2="55.22380399835377" /><path d="M 25.398753493254645 57.213857153982495 a86.0,86.0 0 0,1 29.58750427330803,-30.492523968695096" fill="none" id="id23" stroke="none" /><text fill="#e1ed5e" style="font-size:6.75px; font-family:Arial;" text-anchor="middle"><textPath startOffset="21.46611528233685" xlink:href="#id23">November</textPath></text><line stroke="#e1ed5e" stroke-width="0.3" x1="56.762969772571076" x2="54.21961505331055" y1="26.818313649435495" y2="22.513508569990535" /><path d="M 56.25429882871897 25.957352633546506 a86.0,86.0 0 0,1 42.265352541879196,-11.944610805530505" fill="none" id="id24" stroke="none" /><text fill="#e1ed5e" style="font-size:6.75px; font-family:Arial;" text-anchor="middle"><textPath startOffset="22.20632615414155" xlink:href="#id24">December</textPath></text></svg>