<?xml version="1.0" encoding="utf-8" ?>
<svg baseProfile="full" height="200mm" version="1.1" viewBox="0,0,200,200" width="200mm" xmlns="http://www.w3.org/2000/svg" xmlns:ev="http://www.w3.org/2001/xml-events" xmlns:xlink="http://www.w3.org/1999/xlink"><defs /><rect fill="#1a1a1a" height="200" width="200" x="0" y="0" /><text alignment-baseline="middle" fill="#e1ed5e" style="dominant-baseline: central; font-size:9.0px; font-family:Arial;" text-anchor="middle" x="100.0" y="100.0">2024</text><line stroke="#e1ed5e" stroke-width="0.3" x1="100.0" x2="100.0" y1="15.0" y2="10.0" /><path d="M 100.0 14.0 a86.0,86.0 0 0,1 42.35913384403234,11.155469271406648" fill="none" id="id1" stroke="none" /><text fill="#e1ed5e" style="font-size:6.75px; font-family:Arial;" text-anchor="middle"><textPath startOffset="22.145653131862478" xlink:href="#id1">January</textPath></text><line stroke="#e1ed5e" stroke-width="0.3" x1="143.13028292997686" x2="145.6673583964461" y1="26.7553504044142" y2="22.446841604673864" /><path d="M 143.63769802327073 25.89364864446614 a86.0,86.0 0 0,1 29.32050498858742,28.57503671076993" fill="none" id="id2" stroke="none" /><text fill="#e1ed5e" style="font-size:6.75px; font-family:Arial;" text-anchor="middle"><textPath startOffset="20.669276256404974" xlink:href="#id2">February</textPath></text><line stroke="#e1ed5e" stroke-width="0.3" x1="172.87174338648825" x2="177.1583165268699" y1="56.24261187166439" y2="53.66864786411523" /><path d="M 173.72905801456457 55.72781907015455 a86.0,86.0 0 0,1 12.242430191666344,42.057860355516425" fill="none" id="id3" stroke="none" /><text fill="#e1ed5e" style="font-size:6.75px; font-family:Arial;" text-anchor="middle"><textPath startOffset="22.145653131862474" xlink:href="#id3">March</textPath></text><line stroke="#e1ed5e" stroke-width="0.3" x1="184.99686870605535" x2="189.99668451229388" y1="99.2704041080226" y2="99.22748670261217" /><path d="M 185.99683186730306 99.26182062694052 a86.0,86.0 0 0,1 -10.086455211305974,41.156179273409016" fill="none" id="id4" stroke="none" /><text fill="#e1ed5e" style="font-size:6.75px; font-family:Arial;" text-anchor="middle"><textPath startOffset="21.40746469413373" xlink:href="#id4">April</textPath></text><line stroke="#e1ed5e" stroke-width="0.3" x1="174.33088141563837" x2="178.70328620479359" y1="141.23008692659167" y2="143.65538615756765" /><path d="M 175.20536237346943 141.71514677278685 a86.0,86.0 0 0,1 -30.301960400862466,31.631185727798858" fill="none" id="id5" stroke="none" /><text fill="#e1ed5e" style="font-size:6.75px; font-family:Arial;" text-anchor="middle"><textPath startOffset="22.145653131862474" xlink:href="#id5">May</textPath></text><line stroke="#e1ed5e" stroke-width="0.3" x1="143.1302829299769" x2="145.66735839644613" y1="173.24464959558577" y2="177.55315839532614" /><path d="M 143.63769802327073 174.10635135553383 a86.0,86.0 0 0,1 -40.68552437913181,11.842963189579606" fill="none" id="id6" stroke="none" /><text fill="#e1ed5e" style="font-size:6.75px; font-family:Arial;" text-anchor="middle"><textPath startOffset="21.407464694133747" xlink:href="#id6">June</textPath></text><line stroke="#e1ed5e" stroke-width="0.3" x1="101.45913802915013" x2="101.54496967792366" y1="184.9874750549273" y2="189.98673829345242" /><path d="M 101.47630435890484 185.9873277026323 a86.0,86.0 0 0,1 -42.54439059252881,-10.42667462771756" fill="none" id="id7" stroke="none" /><text fill="#e1ed5e" style="font-size:6.75px; font-family:Arial;" text-anchor="middle"><textPath startOffset="22.145653131862474" xlink:href="#id7">July</textPath></text><line stroke="#e1ed5e" stroke-width="0.3" x1="58.13341422392154" x2="55.67067388415222" y1="173.97424548756322" y2="178.32567169271397" /><path d="M 57.64086615596768 174.84453072859336 a86.0,86.0 0 0,1 -31.369924170532247,-30.572349798747897" fill="none" id="id8" stroke="none" /><text fill="#e1ed5e" style="font-size:6.75px; font-family:Arial;" text-anchor="middle"><textPath startOffset="22.145653131862474" xlink:href="#id8">August</textPath></text><line stroke="#e1ed5e" stroke-width="0.3" x1="26.387840678322732" x2="22.057713659400548" y1="142.50000000000003" y2="145.00000000000006" /><path d="M 25.521815274538298 143.00000000000003 a86.0,86.0 0 0,1 -11.493303480769221,-40.785679425670985" fill="none" id="id9" stroke="none" /><text fill="#e1ed5e" style="font-size:6.75px; font-family:Arial;" text-anchor="middle"><textPath startOffset="21.40746469413373" xlink:href="#id9">September</textPath></text><path d="M 79.83685265289637 105.86919833188381 l -34.75524597400914 10.116745574651947 a57.19773009093414,57.19773009093414 0 0,0 -0.2663276332477616,-0.9451028148709206 l 34.92379209933148 -9.51863483587803" fill="red" stroke="none" /><path d="M 79.64726062577567 105.17358676015961 l -19.609982162630544 4.984780781501947 a41.23362152108019,41.23362152108019 0 0,0 -0.1684932882578515,-0.6875101145676352 l 19.69266297740469 -4.647414842326213" fill="red" stroke="none" /><path d="M 79.56144815229197 104.8234425847677 l -19.55186281311902 4.614186386933765 a41.088953568476164,41.088953568476164 0 0,0 -0.1561167716536077,-0.6878793013833212 l 19.628190446330294 -4.277872751611417" fill="red" stroke="none" /><path d="M 79.2786578344484 103.40968896794605 l -17.907773316812133 2.94671728457448 a39.1485946541747,39.1485946541747 0 0,0 -0.1034240769665433,-0.6640567655520138 l 17.95571888591694 -2.638872337091016" fill="red" stroke="none" /><path d="M 79.13060592940153 102.33845913500099 l -19.86050062274489 2.225410519818635 a40.98479264260126,40.98479264260126 0 0,0 -0.07234324799505923,-0.6998552998480285 l 19.895776263221617 -1.884150697687675" fill="red" stroke="none" /><path d="M 79.01933749520258 100.90099992219065 l -36.190414275506264 1.5541721067589016 a57.22377032240287,57.22377032240287 0 0,0 -0.033722003283819434,-0.9817793316753994 l 36.21176096578693 -0.9326865105193822" fill="red" stroke="none" /><path d="M 79.00696218219943 100.54070618675478 l -18.44808753536226 0.47515729503930293 a39.4542057040507,39.4542057040507 0 0,0 -0.011626907177134225,-0.6772090535245943 l 18.45352587413806 -0.15840132554565628" fill="red" stroke="none" /><line stroke="#e1ed5e" stroke-width="0.3" x1="15.003131293944662" x2="10.003315487706104" y1="100.72959589197737" y2="100.7725132973878" /><path d="M 14.003168132696942 100.73817937305945 a86.0,86.0 0 0,1 10.791469493833604,-42.45332614584628" fill="none" id="id10" stroke="none" /><text fill="#e1ed5e" style="font-size:6.75px; font-family:Arial;" text-anchor="middle"><textPath startOffset="22.145653131862435" xlink:href="#id10">October</textPath></text><path d="M 79.34024301695615 96.23510406497455 l -61.97927094913153 -11.29468780507634 a84.0,84.0 0 0,0 0.27069483087136303,-1.4163897398667418 l 61.776249825978006 12.356980109976396" fill="red" stroke="none" /><path d="M 79.48165901384962 95.52812308129327 l -19.777667889102787 -4.310450664545638 a41.241939928354924,41.241939928354924 0 0,0 0.1566980406940052,-0.6904404800266434 l 19.70075898685112 4.649325478511289" fill="red" stroke="none" /><path d="M 79.56144815229197 95.17655741523228 l -25.1152293044566 -5.927125730627867 a46.80514604574263,46.80514604574263 0 0,0 0.19126025495005142,-0.7804071079182465 l 25.009781522990252 6.357388663154231" fill="red" stroke="none" /><path d="M 79.64726062577567 94.8264132398404 l -33.415311458817946 -8.494041503272499 a55.47798980435382,55.47798980435382 0 0,0 0.2425458594213268,-0.9209861344764585 l 33.2645761185919 9.066408142121743" fill="red" stroke="none" /><path d="M 79.94057633289273 93.78553927170692 l -34.763357087461 -10.769776888351112 a57.39339349683108,57.39339349683108 0 0,0 0.2996352861206093,-0.9386032661117568 l 34.57335708556314 11.364949188154261" fill="red" stroke="none" /><path d="M 80.28708602549916 92.7611449362534 l -33.99819024387724 -12.48460638155567 a57.21798360429871,57.21798360429871 0 0,0 0.3464938975464515,-0.9191162291933953 l 33.77886566251635 13.066390890943211" fill="red" stroke="none" /><path d="M 80.9802524753101 91.09779779509293 l -32.77519423529033 -15.340445818689496 a57.18760333425186,57.18760333425186 0 0,0 0.42378939363670887,-0.885556840055221 l 32.50702558369371 15.900815160809803" fill="red" stroke="none" /><line stroke="#e1ed5e" stroke-width="0.3" x1="26.387840678322718" x2="22.05771365940052" y1="57.49999999999999" y2="54.99999999999999" /><path d="M 25.521815274538284 56.99999999999999 a86.0,86.0 0 0,1 29.574782752854787,-30.34633250058573" fill="none" id="id11" stroke="none" /><text fill="#e1ed5e" style="font-size:6.75px; font-family:Arial;" text-anchor="middle"><textPath startOffset="21.40746469413373" xlink:href="#id11">November</textPath></text><path d="M 81.99639281039701 89.18935116829357 l -12.761030199354174 -7.662631980533718 a35.88488564342794,35.88488564342794 0 0,0 0.3216516699975184,-0.5253938298794922 l 12.627610564901262 7.880562926537754" fill="red" stroke="none" /><line stroke="#e1ed5e" stroke-width="0.3" x1="56.869717070023135" x2="54.33264160355391" y1="26.7553504044142" y2="22.446841604673864" /><path d="M 56.362301976729285 25.89364864446614 a86.0,86.0 0 0,1 42.16139366436587,-11.88097634709845" fill="none" id="id12" stroke="none" /><text fill="#e1ed5e" style="font-size:6.75px; font-family:Arial;" text-anchor="middle"><textPath startOffset="22.145653131862474" xlink:href="#id12">December</textPath></text></svg>